<svg xmlns="http://www.w3.org/2000/svg" xmlns:xlink="http://www.w3.org/1999/xlink" width="500" zoomAndPan="magnify" viewBox="0 0 375 374.999991" height="500" preserveAspectRatio="xMidYMid meet" version="1.0"><defs><g/><clipPath id="c60d87bf70"><path d="M 85.355469 199 L 289.355469 199 L 289.355469 313 L 85.355469 313 Z M 85.355469 199 " clip-rule="nonzero"/></clipPath><clipPath id="5dee7acab9"><path d="M 85.355469 213 L 289.355469 213 L 289.355469 316 L 85.355469 316 Z M 85.355469 213 " clip-rule="nonzero"/></clipPath><clipPath id="e768573604"><path d="M 169 130.253906 L 206 130.253906 L 206 225 L 169 225 Z M 169 130.253906 " clip-rule="nonzero"/></clipPath><clipPath id="1d3e7bd352"><path d="M 85.355469 251.832031 L 289.644531 251.832031 L 289.644531 291.671875 L 85.355469 291.671875 Z M 85.355469 251.832031 " clip-rule="nonzero"/></clipPath></defs><g clip-path="url(#c60d87bf70)"><path fill="#000000" d="M 100.261719 267.605469 C 98.296875 264.367188 96.511719 261.011719 94.90625 257.554688 C 99.269531 257.902344 103.441406 258.917969 107.320312 260.507812 C 105.277344 262.90625 103.328125 265.394531 101.503906 267.972656 C 101.09375 267.839844 100.679688 267.714844 100.261719 267.605469 Z M 224.535156 309.769531 C 221.703125 310.871094 218.816406 311.847656 215.875 312.699219 C 214.421875 310.15625 212.640625 307.828125 210.585938 305.773438 C 204.675781 299.867188 196.515625 296.210938 187.5 296.210938 C 178.476562 296.210938 170.316406 299.867188 164.410156 305.773438 C 162.351562 307.828125 160.570312 310.15625 159.117188 312.699219 C 156.175781 311.847656 153.289062 310.871094 150.460938 309.769531 C 152.445312 305.925781 155.011719 302.433594 158.039062 299.402344 C 165.578125 291.863281 175.992188 287.199219 187.5 287.199219 C 199 287.199219 209.417969 291.863281 216.957031 299.402344 C 219.984375 302.433594 222.546875 305.925781 224.535156 309.769531 Z M 270.671875 273.765625 C 268.828125 276.359375 266.863281 278.867188 264.785156 281.273438 C 261.0625 275.238281 256.65625 269.675781 251.667969 264.691406 C 235.25 248.265625 212.554688 238.109375 187.5 238.109375 C 162.4375 238.109375 139.75 248.265625 123.324219 264.691406 C 118.339844 269.675781 113.933594 275.238281 110.210938 281.273438 C 108.132812 278.867188 106.164062 276.359375 104.320312 273.765625 C 108.015625 268.203125 112.25 263.023438 116.953125 258.320312 C 135.007812 240.265625 159.949219 229.097656 187.5 229.097656 C 215.042969 229.097656 239.984375 240.265625 258.039062 258.320312 C 262.742188 263.023438 266.980469 268.203125 270.671875 273.765625 Z M 249.828125 295.445312 C 247.433594 297.296875 244.957031 299.046875 242.402344 300.679688 C 239.457031 294.953125 235.636719 289.742188 231.128906 285.230469 C 219.960938 274.0625 204.535156 267.160156 187.5 267.160156 C 170.457031 267.160156 155.03125 274.0625 143.863281 285.230469 C 139.355469 289.742188 135.539062 294.953125 132.589844 300.679688 C 130.035156 299.046875 127.558594 297.292969 125.167969 295.445312 C 128.457031 289.320312 132.625 283.738281 137.5 278.863281 C 150.292969 266.066406 167.972656 258.148438 187.5 258.148438 C 207.023438 258.148438 224.699219 266.066406 237.496094 278.863281 C 242.371094 283.738281 246.535156 289.320312 249.828125 295.445312 Z M 288.375 199.441406 C 288.824219 202.425781 289.132812 205.453125 289.320312 208.519531 C 287.375 208.390625 285.414062 208.328125 283.4375 208.328125 C 260.894531 208.328125 240.273438 216.546875 224.402344 230.152344 C 221.167969 228.941406 217.859375 227.886719 214.476562 226.992188 C 232.394531 209.851562 256.6875 199.320312 283.4375 199.320312 C 285.09375 199.320312 286.738281 199.363281 288.375 199.441406 Z M 288.570312 228.554688 C 288.15625 231.574219 287.617188 234.550781 286.953125 237.476562 C 285.789062 237.410156 284.617188 237.378906 283.4375 237.378906 C 272.085938 237.378906 261.453125 240.445312 252.3125 245.792969 C 249.75 243.792969 247.097656 241.90625 244.355469 240.148438 C 255.550781 232.707031 268.988281 228.371094 283.4375 228.371094 C 285.164062 228.371094 286.875 228.4375 288.570312 228.554688 Z M 280.085938 257.554688 C 278.484375 261.011719 276.699219 264.371094 274.734375 267.605469 C 274.3125 267.714844 273.902344 267.839844 273.488281 267.972656 C 271.664062 265.394531 269.71875 262.90625 267.671875 260.507812 C 271.550781 258.917969 275.726562 257.902344 280.085938 257.554688 Z M 85.671875 208.519531 C 85.859375 205.453125 86.171875 202.425781 86.617188 199.441406 C 88.253906 199.363281 89.902344 199.320312 91.558594 199.320312 C 118.308594 199.320312 142.597656 209.851562 160.515625 226.992188 C 157.136719 227.886719 153.824219 228.941406 150.589844 230.152344 C 134.71875 216.546875 114.097656 208.328125 91.558594 208.328125 C 89.582031 208.328125 87.621094 208.390625 85.671875 208.519531 Z M 88.042969 237.476562 C 87.371094 234.550781 86.835938 231.574219 86.421875 228.554688 C 88.117188 228.4375 89.832031 228.371094 91.558594 228.371094 C 106.003906 228.371094 119.441406 232.707031 130.636719 240.148438 C 127.894531 241.90625 125.242188 243.792969 122.683594 245.792969 C 113.546875 240.445312 102.910156 237.378906 91.558594 237.378906 C 90.375 237.378906 89.207031 237.410156 88.042969 237.476562 Z M 88.042969 237.476562 " fill-opacity="1" fill-rule="evenodd"/></g><g clip-path="url(#5dee7acab9)"><path fill="#000000" d="M 285.546875 242.9375 C 284.667969 245.988281 283.652344 248.984375 282.503906 251.910156 C 275.832031 252.042969 269.496094 253.558594 263.777344 256.179688 C 261.578125 253.875 259.265625 251.667969 256.867188 249.5625 C 264.78125 245.308594 273.824219 242.894531 283.4375 242.894531 C 284.144531 242.894531 284.847656 242.910156 285.546875 242.9375 Z M 260.90625 285.519531 C 258.757812 287.742188 256.515625 289.871094 254.179688 291.890625 C 250.714844 285.660156 246.402344 279.964844 241.398438 274.960938 C 227.605469 261.164062 208.546875 252.632812 187.5 252.632812 C 166.445312 252.632812 147.390625 261.164062 133.59375 274.960938 C 128.589844 279.964844 124.277344 285.660156 120.820312 291.890625 C 118.476562 289.871094 116.234375 287.742188 114.089844 285.519531 C 117.753906 279.332031 122.171875 273.644531 127.222656 268.589844 C 142.648438 253.164062 163.960938 243.625 187.5 243.625 C 211.03125 243.625 232.34375 253.164062 247.769531 268.589844 C 252.820312 273.644531 257.242188 279.332031 260.90625 285.519531 Z M 237.660156 303.53125 C 235.050781 305.007812 232.375 306.375 229.632812 307.617188 C 227.359375 303.117188 224.386719 299.03125 220.859375 295.503906 C 212.320312 286.964844 200.523438 281.683594 187.5 281.683594 C 174.46875 281.683594 162.671875 286.964844 154.136719 295.503906 C 150.605469 299.03125 147.632812 303.117188 145.363281 307.617188 C 142.617188 306.375 139.941406 305.007812 137.335938 303.53125 C 140.039062 298.183594 143.574219 293.328125 147.769531 289.132812 C 157.933594 278.964844 171.980469 272.675781 187.5 272.675781 C 203.011719 272.675781 217.058594 278.964844 227.226562 289.132812 C 231.421875 293.328125 234.957031 298.183594 237.660156 303.53125 Z M 210.296875 314.144531 C 206.984375 314.898438 203.613281 315.492188 200.1875 315.914062 C 196.917969 312.710938 192.4375 310.734375 187.5 310.734375 C 182.554688 310.734375 178.078125 312.710938 174.808594 315.914062 C 171.378906 315.492188 168.007812 314.898438 164.695312 314.144531 C 165.742188 312.527344 166.953125 311.03125 168.308594 309.671875 C 173.222656 304.761719 180.007812 301.726562 187.5 301.726562 C 194.992188 301.726562 201.777344 304.761719 206.683594 309.671875 C 208.039062 311.03125 209.25 312.527344 210.296875 314.144531 Z M 85.824219 223.066406 C 85.597656 220.300781 85.484375 217.507812 85.484375 214.6875 C 85.484375 214.480469 85.488281 214.269531 85.488281 214.058594 C 87.496094 213.917969 89.519531 213.84375 91.558594 213.84375 C 111.699219 213.84375 130.210938 220.835938 144.796875 232.519531 C 141.726562 233.878906 138.738281 235.386719 135.832031 237.023438 C 123.351562 228.105469 108.070312 222.855469 91.558594 222.855469 C 89.628906 222.855469 87.71875 222.925781 85.824219 223.066406 Z M 92.488281 251.910156 C 91.339844 248.984375 90.328125 245.988281 89.449219 242.9375 C 90.148438 242.910156 90.847656 242.894531 91.558594 242.894531 C 101.167969 242.894531 110.214844 245.308594 118.128906 249.5625 C 115.726562 251.667969 113.417969 253.875 111.214844 256.179688 C 105.5 253.558594 99.164062 252.042969 92.488281 251.910156 Z M 289.503906 214.058594 C 289.503906 214.269531 289.511719 214.480469 289.511719 214.6875 C 289.511719 217.507812 289.394531 220.300781 289.167969 223.066406 C 287.273438 222.925781 285.363281 222.855469 283.4375 222.855469 C 266.925781 222.855469 251.644531 228.105469 239.160156 237.023438 C 236.253906 235.386719 233.265625 233.878906 230.195312 232.519531 C 244.78125 220.835938 263.292969 213.84375 283.4375 213.84375 C 285.476562 213.84375 287.496094 213.917969 289.503906 214.058594 Z M 289.503906 214.058594 " fill-opacity="1" fill-rule="evenodd"/></g><g clip-path="url(#e768573604)"><path fill="#3b9b12" d="M 188.644531 172.277344 C 192.726562 171.175781 198.476562 166.851562 200.820312 164.375 C 204.007812 161.003906 206.078125 155.488281 205.378906 148.863281 C 195.183594 151.976562 187.722656 158.625 188.644531 172.277344 Z M 186.347656 172.28125 C 187.335938 158.773438 179.898438 151.941406 169.664062 148.917969 C 168.84375 155.273438 170.839844 160.597656 173.882812 164.070312 C 176.394531 166.929688 182.070312 171.007812 186.347656 172.28125 Z M 188.675781 224.039062 C 198.675781 220.90625 206.394531 212.632812 205.429688 200.707031 C 200.976562 201.550781 194.992188 205.542969 192.792969 208.273438 C 189.644531 212.171875 188.117188 217.640625 188.675781 224.039062 Z M 169.589844 200.722656 C 168.523438 212.710938 176.402344 220.777344 186.308594 224.039062 C 186.9375 217.609375 185.179688 211.683594 181.964844 207.90625 C 179.742188 205.292969 174.019531 201.582031 169.589844 200.722656 Z M 187.433594 159.019531 C 190.214844 155.835938 192.589844 149.042969 193.160156 145.683594 C 193.941406 141.109375 192.597656 135.375 188.335938 130.253906 C 181.589844 138.507812 179.078125 148.179688 187.433594 159.019531 Z M 188.566406 189.363281 C 193.007812 188.128906 198.5625 183.980469 200.890625 181.34375 C 204.421875 177.335938 205.621094 172.832031 205.507812 166.089844 C 201.078125 167.039062 194.953125 170.824219 192.917969 173.375 C 189.855469 177.222656 188.527344 182.726562 188.566406 189.363281 Z M 186.429688 189.355469 C 186.515625 182.777344 185.238281 177.359375 182.078125 173.375 C 180.148438 170.945312 173.863281 166.976562 169.507812 166.089844 C 169.351562 178.015625 175.679688 186.203125 186.429688 189.355469 Z M 174.070312 198.878906 C 176.347656 201.382812 182.003906 205.742188 186.464844 206.894531 C 186.445312 200.183594 185.382812 194.875 182.035156 190.925781 C 179.625 188.078125 173.855469 184.425781 169.5 183.640625 C 169.386719 190.457031 170.398438 194.839844 174.070312 198.878906 Z M 188.550781 206.863281 C 193.207031 205.78125 198.503906 201.457031 200.898438 198.851562 C 204.652344 194.765625 205.722656 190.636719 205.476562 183.664062 C 201.394531 184.378906 194.816406 188.527344 192.921875 190.890625 C 189.765625 194.84375 188.488281 200.289062 188.550781 206.863281 Z M 188.550781 206.863281 " fill-opacity="1" fill-rule="evenodd"/></g><g clip-path="url(#1d3e7bd352)"><path fill="#ffffff" d="M 85.355469 251.832031 L 289.695312 251.832031 L 289.695312 291.671875 L 85.355469 291.671875 Z M 85.355469 251.832031 " fill-opacity="1" fill-rule="nonzero"/></g><g fill="#000000" fill-opacity="1"><g transform="translate(112.421296, 141.002297)"><g><path d="M 0.84375 -1.234375 L -3.09375 -4.328125 C -3.84375 -4.921875 -4.796875 -5.671875 -5.953125 -6.578125 C -5.960938 -6.585938 -9.316406 -9.195312 -16.015625 -14.40625 L -11.328125 -21.21875 L 2.75 -16.9375 L -6.28125 -28.5625 L -1.578125 -35.390625 C 0.992188 -33.859375 3.109375 -32.578125 4.765625 -31.546875 C 7.796875 -29.710938 10.359375 -28.171875 12.453125 -26.921875 C 12.867188 -26.671875 13.378906 -26.359375 13.984375 -25.984375 C 14.597656 -25.609375 15.1875 -25.257812 15.75 -24.9375 C 16.3125 -24.613281 16.644531 -24.414062 16.75 -24.34375 L 13.90625 -20.203125 L -0.75 -29.0625 L 10.25 -14.890625 L 7.34375 -10.6875 L -9.8125 -15.875 L 3.6875 -5.359375 Z M 0.84375 -1.234375 "/></g></g></g><g fill="#000000" fill-opacity="1"><g transform="translate(133.876225, 112.714943)"><g><path d="M 1.5625 -1.015625 L -10.09375 -18.90625 L -5.96875 -21.59375 L -1.0625 -14.078125 L 1.34375 -26.359375 L 6.609375 -29.78125 L 4.796875 -20.453125 L 19.1875 -12.5 L 14.53125 -9.46875 L 3.796875 -15.375 L 2.453125 -8.671875 L 5.6875 -3.703125 Z M 1.5625 -1.015625 "/></g></g></g><g fill="#000000" fill-opacity="1"><g transform="translate(159.494612, 98.280729)"><g/></g></g><g fill="#000000" fill-opacity="1"><g transform="translate(172.379527, 94.200887)"><g><path d="M 1.859375 -0.140625 L 0.265625 -21.4375 L 15.953125 -22.609375 L 16.234375 -18.90625 L 5.46875 -18.09375 L 5.9375 -11.828125 L 15.21875 -12.53125 L 15.5 -8.8125 L 6.21875 -8.109375 L 6.78125 -0.5 Z M 1.859375 -0.140625 "/></g></g></g><g fill="#000000" fill-opacity="1"><g transform="translate(196.339758, 92.907325)"><g><path d="M 0.390625 0.09375 L 12.65625 -18.8125 L 20.578125 -16.78125 L 22.21875 5.6875 L 17.203125 4.40625 L 16.859375 -0.3125 L 8.015625 -2.578125 L 5.421875 1.390625 Z M 10.203125 -5.984375 L 16.53125 -4.359375 L 15.796875 -14.578125 Z M 10.203125 -5.984375 "/></g></g></g><g fill="#000000" fill-opacity="1"><g transform="translate(223.692689, 101.020659)"><g><path d="M 1.546875 1.03125 L 13.40625 -16.734375 L 21.453125 -11.359375 C 23.773438 -9.804688 25.164062 -8.007812 25.625 -5.96875 C 26.082031 -3.925781 25.726562 -2.035156 24.5625 -0.296875 C 23.851562 0.765625 22.863281 1.609375 21.59375 2.234375 C 20.320312 2.859375 18.96875 3.070312 17.53125 2.875 L 16.296875 10.890625 L 11.78125 7.875 L 12.828125 0.890625 L 9.203125 -1.53125 L 5.65625 3.78125 Z M 11.265625 -4.625 L 15.265625 -1.953125 C 16.171875 -1.347656 17.101562 -1.132812 18.0625 -1.3125 C 19.019531 -1.488281 19.816406 -2.050781 20.453125 -3 C 21.085938 -3.957031 21.304688 -4.914062 21.109375 -5.875 C 20.910156 -6.832031 20.359375 -7.613281 19.453125 -8.21875 L 15.453125 -10.890625 Z M 11.265625 -4.625 "/></g></g></g><g fill="#000000" fill-opacity="1"><g transform="translate(245.287373, 115.424743)"><g><path d="M 0.84375 1.234375 L 5.15625 -1.328125 C 5.96875 -1.816406 7.003906 -2.441406 8.265625 -3.203125 C 8.273438 -3.210938 11.910156 -5.414062 19.171875 -9.8125 L 23.859375 -3 L 14.84375 8.625 L 28.90625 4.34375 L 33.609375 11.171875 C 31.265625 13.035156 29.316406 14.554688 27.765625 15.734375 C 24.960938 17.898438 22.609375 19.742188 20.703125 21.265625 C 20.304688 21.554688 19.820312 21.921875 19.25 22.359375 C 18.6875 22.796875 18.15625 23.21875 17.65625 23.625 C 17.15625 24.03125 16.851562 24.269531 16.75 24.34375 L 13.90625 20.203125 L 27.40625 9.6875 L 10.25 14.890625 L 7.34375 10.6875 L 18.34375 -3.5 L 3.6875 5.359375 Z M 0.84375 1.234375 "/></g></g></g><g fill="#3b9b12" fill-opacity="1"><g transform="translate(110.157237, 280.266778)"><g><path d="M 6.96875 0 L 1.625 0 L 1.625 -20.265625 L 6.96875 -20.265625 L 6.96875 -11.84375 L 14.3125 -11.84375 L 14.3125 -20.265625 L 19.640625 -20.265625 L 19.640625 0 L 14.3125 0 L 14.3125 -7.65625 L 6.96875 -7.65625 Z M 6.96875 0 "/></g></g></g><g fill="#3b9b12" fill-opacity="1"><g transform="translate(133.950962, 280.266778)"><g><path d="M 1.625 -20.265625 L 16.90625 -20.265625 L 16.90625 -16.171875 L 6.96875 -16.171875 L 6.96875 -12.125 L 14.515625 -12.125 L 14.515625 -7.96875 L 6.96875 -7.96875 L 6.96875 -4.09375 L 16.90625 -4.09375 L 16.90625 0 L 1.625 0 Z M 1.625 -20.265625 "/></g></g></g><g fill="#3b9b12" fill-opacity="1"><g transform="translate(154.489124, 280.266778)"><g><path d="M 21.578125 0 L 15.9375 0 L 14.515625 -4.125 L 7.3125 -4.125 L 5.890625 0 L 0.25 0 L 6.890625 -20.265625 L 14.9375 -20.265625 Z M 13.609375 -8.3125 L 10.90625 -16.625 L 8.203125 -8.3125 Z M 13.609375 -8.3125 "/></g></g></g><g fill="#3b9b12" fill-opacity="1"><g transform="translate(178.83701, 280.266778)"><g><path d="M 1.625 -20.265625 L 6.96875 -20.265625 L 6.96875 -4.09375 L 16.90625 -4.09375 L 16.90625 0 L 1.625 0 Z M 1.625 -20.265625 "/></g></g></g><g fill="#3b9b12" fill-opacity="1"><g transform="translate(199.028825, 280.266778)"><g><path d="M 11.609375 0 L 6.265625 0 L 6.265625 -16.171875 L 0.421875 -16.171875 L 0.421875 -20.265625 L 17.453125 -20.265625 L 17.453125 -16.171875 L 11.609375 -16.171875 Z M 11.609375 0 "/></g></g></g><g fill="#3b9b12" fill-opacity="1"><g transform="translate(219.428442, 280.266778)"><g><path d="M 6.96875 0 L 1.625 0 L 1.625 -20.265625 L 6.96875 -20.265625 L 6.96875 -11.84375 L 14.3125 -11.84375 L 14.3125 -20.265625 L 19.640625 -20.265625 L 19.640625 0 L 14.3125 0 L 14.3125 -7.65625 L 6.96875 -7.65625 Z M 6.96875 0 "/></g></g></g><g fill="#3b9b12" fill-opacity="1"><g transform="translate(243.222189, 280.266778)"><g><path d="M 8.171875 -6.296875 L 0.421875 -20.265625 L 6.34375 -20.265625 L 10.84375 -12.0625 L 15.234375 -20.265625 L 21.203125 -20.265625 L 13.515625 -6.34375 L 13.515625 0 L 8.171875 0 Z M 8.171875 -6.296875 "/></g></g></g></svg>