<svg xmlns="http://www.w3.org/2000/svg" xmlns:xlink="http://www.w3.org/1999/xlink" width="500" zoomAndPan="magnify" viewBox="0 0 375 374.999991" height="500" preserveAspectRatio="xMidYMid meet" version="1.0"><defs><g/><clipPath id="09989fda5c"><path d="M 32.339844 197 L 342.839844 197 L 342.839844 371 L 32.339844 371 Z M 32.339844 197 " clip-rule="nonzero"/></clipPath><clipPath id="80636b99ef"><path d="M 32.339844 219 L 342.839844 219 L 342.839844 375 L 32.339844 375 Z M 32.339844 219 " clip-rule="nonzero"/></clipPath><clipPath id="7a08d5c3cf"><path d="M 32.339844 277.675781 L 342.660156 277.675781 L 342.660156 338.191406 L 32.339844 338.191406 Z M 32.339844 277.675781 " clip-rule="nonzero"/></clipPath></defs><g clip-path="url(#09989fda5c)"><path fill="#000000" d="M 54.992188 301.636719 C 52.007812 296.71875 49.292969 291.621094 46.859375 286.371094 C 53.480469 286.898438 59.820312 288.445312 65.714844 290.859375 C 62.609375 294.503906 59.652344 298.28125 56.875 302.195312 C 56.253906 301.996094 55.625 301.808594 54.992188 301.636719 Z M 243.757812 365.683594 C 239.460938 367.355469 235.074219 368.839844 230.605469 370.136719 C 228.402344 366.269531 225.695312 362.738281 222.574219 359.613281 C 213.597656 350.640625 201.199219 345.085938 187.503906 345.085938 C 173.800781 345.085938 161.402344 350.640625 152.429688 359.613281 C 149.308594 362.738281 146.597656 366.269531 144.394531 370.136719 C 139.925781 368.839844 135.539062 367.355469 131.242188 365.683594 C 134.261719 359.847656 138.152344 354.542969 142.753906 349.9375 C 154.207031 338.484375 170.023438 331.402344 187.503906 331.402344 C 204.976562 331.402344 220.796875 338.484375 232.25 349.9375 C 236.847656 354.542969 240.742188 359.847656 243.757812 365.683594 Z M 313.84375 310.996094 C 311.042969 314.9375 308.054688 318.742188 304.898438 322.398438 C 299.246094 313.234375 292.554688 304.78125 284.980469 297.210938 C 260.035156 272.261719 225.566406 256.832031 187.503906 256.832031 C 149.433594 256.832031 114.96875 272.261719 90.019531 297.210938 C 82.449219 304.78125 75.753906 313.234375 70.101562 322.398438 C 66.945312 318.742188 63.960938 314.9375 61.15625 310.996094 C 66.765625 302.542969 73.203125 294.679688 80.347656 287.535156 C 107.769531 260.109375 145.65625 243.148438 187.503906 243.148438 C 229.34375 243.148438 267.230469 260.109375 294.652344 287.535156 C 301.796875 294.679688 308.234375 302.542969 313.84375 310.996094 Z M 282.183594 343.925781 C 278.542969 346.738281 274.785156 349.394531 270.902344 351.878906 C 266.425781 343.175781 260.628906 335.261719 253.777344 328.414062 C 236.8125 311.449219 213.382812 300.960938 187.503906 300.960938 C 161.617188 300.960938 138.1875 311.449219 121.222656 328.414062 C 114.371094 335.261719 108.574219 343.175781 104.097656 351.878906 C 100.21875 349.394531 96.457031 346.734375 92.824219 343.925781 C 97.820312 334.625 104.148438 326.140625 111.554688 318.738281 C 130.988281 299.296875 157.839844 287.277344 187.503906 287.277344 C 217.160156 287.277344 244.015625 299.296875 263.453125 318.738281 C 270.855469 326.140625 277.179688 334.625 282.183594 343.925781 Z M 340.738281 198.09375 C 341.417969 202.632812 341.886719 207.226562 342.171875 211.886719 C 339.214844 211.691406 336.234375 211.597656 333.234375 211.597656 C 298.992188 211.597656 267.667969 224.082031 243.558594 244.75 C 238.648438 242.910156 233.617188 241.304688 228.484375 239.945312 C 255.699219 213.914062 292.597656 197.914062 333.234375 197.914062 C 335.753906 197.914062 338.25 197.980469 340.738281 198.09375 Z M 341.03125 242.324219 C 340.40625 246.910156 339.585938 251.425781 338.578125 255.875 C 336.804688 255.773438 335.027344 255.726562 333.234375 255.726562 C 315.992188 255.726562 299.835938 260.382812 285.953125 268.507812 C 282.066406 265.464844 278.035156 262.601562 273.871094 259.929688 C 290.878906 248.625 311.285156 242.039062 333.234375 242.039062 C 335.859375 242.039062 338.453125 242.140625 341.03125 242.324219 Z M 328.144531 286.371094 C 325.710938 291.621094 323 296.722656 320.011719 301.636719 C 319.375 301.808594 318.75 301.996094 318.125 302.195312 C 315.351562 298.28125 312.398438 294.503906 309.285156 290.859375 C 315.179688 288.445312 321.519531 286.898438 328.144531 286.371094 Z M 32.828125 211.886719 C 33.113281 207.226562 33.589844 202.632812 34.265625 198.09375 C 36.75 197.980469 39.253906 197.914062 41.769531 197.914062 C 82.402344 197.914062 119.300781 213.914062 146.515625 239.945312 C 141.382812 241.304688 136.351562 242.910156 131.441406 244.75 C 107.332031 224.082031 76.011719 211.597656 41.769531 211.597656 C 38.765625 211.597656 35.785156 211.691406 32.828125 211.886719 Z M 36.429688 255.875 C 35.410156 251.425781 34.597656 246.910156 33.96875 242.324219 C 36.546875 242.140625 39.148438 242.039062 41.769531 242.039062 C 63.714844 242.039062 84.125 248.625 101.132812 259.929688 C 96.964844 262.601562 92.933594 265.464844 89.046875 268.507812 C 75.167969 260.382812 59.011719 255.726562 41.769531 255.726562 C 39.972656 255.726562 38.195312 255.773438 36.429688 255.875 Z M 36.429688 255.875 " fill-opacity="1" fill-rule="evenodd"/></g><g clip-path="url(#80636b99ef)"><path fill="#000000" d="M 336.4375 264.164062 C 335.105469 268.800781 333.558594 273.351562 331.816406 277.800781 C 321.679688 278 312.058594 280.304688 303.371094 284.285156 C 300.03125 280.78125 296.519531 277.429688 292.875 274.234375 C 304.894531 267.769531 318.632812 264.105469 333.234375 264.105469 C 334.308594 264.105469 335.375 264.125 336.4375 264.164062 Z M 299.007812 328.851562 C 295.746094 332.226562 292.339844 335.460938 288.789062 338.53125 C 283.527344 329.066406 276.976562 320.410156 269.378906 312.8125 C 248.425781 291.855469 219.472656 278.894531 187.503906 278.894531 C 155.527344 278.894531 126.578125 291.855469 105.621094 312.8125 C 98.023438 320.410156 91.472656 329.066406 86.214844 338.53125 C 82.660156 335.460938 79.253906 332.226562 75.992188 328.851562 C 81.558594 319.453125 88.269531 310.8125 95.945312 303.136719 C 119.378906 279.703125 151.75 265.210938 187.503906 265.210938 C 223.25 265.210938 255.621094 279.703125 279.054688 303.136719 C 286.730469 310.8125 293.445312 319.453125 299.007812 328.851562 Z M 263.703125 356.207031 C 259.738281 358.449219 255.671875 360.527344 251.507812 362.417969 C 248.050781 355.582031 243.539062 349.375 238.175781 344.011719 C 225.207031 331.042969 207.289062 323.023438 187.503906 323.023438 C 167.710938 323.023438 149.792969 331.042969 136.824219 344.011719 C 131.464844 349.375 126.949219 355.582031 123.5 362.417969 C 119.328125 360.527344 115.265625 358.449219 111.304688 356.207031 C 115.414062 348.089844 120.78125 340.710938 127.15625 334.339844 C 142.59375 318.890625 163.933594 309.339844 187.503906 309.339844 C 211.066406 309.339844 232.40625 318.890625 247.851562 334.339844 C 254.21875 340.710938 259.59375 348.089844 263.703125 356.207031 Z M 222.132812 372.328125 C 217.105469 373.476562 211.980469 374.378906 206.777344 375.019531 C 201.8125 370.152344 195.007812 367.152344 187.503906 367.152344 C 179.992188 367.152344 173.191406 370.152344 168.226562 375.019531 C 163.019531 374.378906 157.894531 373.476562 152.867188 372.328125 C 154.457031 369.875 156.296875 367.601562 158.355469 365.539062 C 165.816406 358.082031 176.121094 353.46875 187.503906 353.46875 C 198.882812 353.46875 209.191406 358.082031 216.644531 365.539062 C 218.703125 367.601562 220.542969 369.875 222.132812 372.328125 Z M 33.0625 233.980469 C 32.71875 229.785156 32.542969 225.542969 32.542969 221.253906 C 32.542969 220.941406 32.550781 220.617188 32.550781 220.304688 C 35.597656 220.085938 38.671875 219.976562 41.769531 219.976562 C 72.367188 219.976562 100.484375 230.59375 122.640625 248.34375 C 117.976562 250.410156 113.4375 252.695312 109.023438 255.183594 C 90.066406 241.636719 66.851562 233.660156 41.769531 233.660156 C 38.839844 233.660156 35.9375 233.773438 33.0625 233.980469 Z M 43.1875 277.800781 C 41.441406 273.351562 39.902344 268.800781 38.566406 264.164062 C 39.628906 264.125 40.695312 264.105469 41.769531 264.105469 C 56.367188 264.105469 70.113281 267.769531 82.128906 274.234375 C 78.480469 277.429688 74.972656 280.78125 71.628906 284.285156 C 62.945312 280.304688 53.320312 278 43.1875 277.800781 Z M 342.449219 220.304688 C 342.449219 220.617188 342.460938 220.941406 342.460938 221.253906 C 342.460938 225.542969 342.28125 229.785156 341.9375 233.980469 C 339.0625 233.773438 336.164062 233.660156 333.234375 233.660156 C 308.15625 233.660156 284.941406 241.636719 265.976562 255.183594 C 261.5625 252.695312 257.023438 250.410156 252.359375 248.34375 C 274.519531 230.59375 302.632812 219.976562 333.234375 219.976562 C 336.332031 219.976562 339.402344 220.085938 342.449219 220.304688 Z M 342.449219 220.304688 " fill-opacity="1" fill-rule="evenodd"/></g><path fill="#3b9b12" d="M 189.242188 156.835938 C 195.445312 155.164062 204.179688 148.589844 207.738281 144.832031 C 212.578125 139.710938 215.726562 131.332031 214.660156 121.269531 C 199.175781 126 187.839844 136.097656 189.242188 156.835938 Z M 185.753906 156.84375 C 187.253906 136.324219 175.957031 125.945312 160.410156 121.355469 C 159.164062 131.007812 162.199219 139.09375 166.824219 144.371094 C 170.632812 148.710938 179.257812 154.910156 185.753906 156.84375 Z M 189.292969 235.460938 C 204.484375 230.703125 216.207031 218.136719 214.738281 200.015625 C 207.976562 201.300781 198.882812 207.367188 195.542969 211.515625 C 190.765625 217.433594 188.445312 225.742188 189.292969 235.460938 Z M 160.300781 200.046875 C 158.675781 218.253906 170.652344 230.503906 185.699219 235.460938 C 186.648438 225.699219 183.980469 216.691406 179.097656 210.953125 C 175.722656 206.984375 167.027344 201.347656 160.300781 200.046875 Z M 187.402344 136.695312 C 191.628906 131.859375 195.234375 121.542969 196.105469 116.4375 C 197.289062 109.492188 195.25 100.78125 188.777344 93 C 178.527344 105.539062 174.710938 120.230469 187.402344 136.695312 Z M 189.125 182.789062 C 195.871094 180.910156 204.3125 174.613281 207.84375 170.605469 C 213.210938 164.519531 215.03125 157.679688 214.859375 147.4375 C 208.132812 148.878906 198.828125 154.628906 195.738281 158.503906 C 191.082031 164.347656 189.066406 172.707031 189.125 182.789062 Z M 185.878906 182.777344 C 186.007812 172.785156 184.070312 164.558594 179.269531 158.503906 C 176.339844 154.808594 166.789062 148.785156 160.179688 147.4375 C 159.941406 165.554688 169.546875 177.988281 185.878906 182.777344 Z M 167.105469 197.242188 C 170.566406 201.046875 179.15625 207.671875 185.9375 209.421875 C 185.902344 199.226562 184.289062 191.160156 179.207031 185.164062 C 175.539062 180.839844 166.78125 175.289062 160.160156 174.09375 C 159.988281 184.449219 161.53125 191.105469 167.105469 197.242188 Z M 189.105469 209.371094 C 196.175781 207.726562 204.222656 201.15625 207.855469 197.203125 C 213.558594 190.996094 215.1875 184.722656 214.8125 174.132812 C 208.609375 175.21875 198.617188 181.519531 195.742188 185.109375 C 190.949219 191.113281 189.003906 199.386719 189.105469 209.371094 Z M 189.105469 209.371094 " fill-opacity="1" fill-rule="evenodd"/><g clip-path="url(#7a08d5c3cf)"><path fill="#ffffff" d="M 32.339844 277.675781 L 342.730469 277.675781 L 342.730469 338.191406 L 32.339844 338.191406 Z M 32.339844 277.675781 " fill-opacity="1" fill-rule="nonzero"/></g><g fill="#000000" fill-opacity="1"><g transform="translate(66.301585, 129.456667)"><g><path d="M 0.953125 -2.078125 L -5.71875 -5.703125 C -7.019531 -6.378906 -8.644531 -7.25 -10.59375 -8.3125 C -10.632812 -8.332031 -16.335938 -11.367188 -27.703125 -17.421875 L -22.421875 -28.859375 L -0.25 -26.078125 L -16.765625 -41.15625 L -11.484375 -52.578125 C -7.234375 -50.953125 -3.726562 -49.585938 -0.96875 -48.484375 C 4 -46.503906 8.226562 -44.851562 11.71875 -43.53125 C 12.40625 -43.257812 13.253906 -42.921875 14.265625 -42.515625 C 15.273438 -42.109375 16.238281 -41.734375 17.15625 -41.390625 C 18.082031 -41.054688 18.628906 -40.847656 18.796875 -40.765625 L 15.609375 -33.859375 L -8.609375 -43.328125 L 11.5 -24.9375 L 8.25 -17.890625 L -18.78125 -21.265625 L 4.140625 -8.96875 Z M 0.953125 -2.078125 "/></g></g></g><g fill="#000000" fill-opacity="1"><g transform="translate(91.122951, 81.579355)"><g><path d="M 2.078125 -1.921875 L -20 -25.71875 L -14.515625 -30.8125 L -5.234375 -20.8125 L -4.796875 -39.828125 L 2.203125 -46.328125 L 1.9375 -31.859375 L 25.5 -23.65625 L 19.328125 -17.921875 L 1.71875 -24 L 1.453125 -13.609375 L 7.5625 -7.015625 Z M 2.078125 -1.921875 "/></g></g></g><g fill="#000000" fill-opacity="1"><g transform="translate(125.749455, 53.365076)"><g/></g></g><g fill="#000000" fill-opacity="1"><g transform="translate(143.98509, 43.933993)"><g><path d="M 2.75 -0.6875 L -5.125 -32.171875 L 18.078125 -37.984375 L 19.4375 -32.5 L 3.484375 -28.5 L 5.8125 -19.234375 L 19.546875 -22.671875 L 20.921875 -17.1875 L 7.1875 -13.75 L 10 -2.5 Z M 2.75 -0.6875 "/></g></g></g><g fill="#000000" fill-opacity="1"><g transform="translate(179.518472, 35.818902)"><g><path d="M 0.609375 0.046875 L 14.109375 -31.421875 L 26.484375 -30.4375 L 34.734375 2.78125 L 26.875 2.15625 L 25.15625 -4.84375 L 11.328125 -5.953125 L 8.453125 0.671875 Z M 13.734375 -11.59375 L 23.625 -10.796875 L 19.875 -25.890625 Z M 13.734375 -11.59375 "/></g></g></g><g fill="#000000" fill-opacity="1"><g transform="translate(222.556451, 40.908996)"><g><path d="M 2.578125 1.15625 L 15.765625 -28.5 L 29.203125 -22.53125 C 33.085938 -20.800781 35.632812 -18.472656 36.84375 -15.546875 C 38.0625 -12.617188 38.023438 -9.703125 36.734375 -6.796875 C 35.929688 -5.003906 34.660156 -3.472656 32.921875 -2.203125 C 31.191406 -0.929688 29.210938 -0.265625 26.984375 -0.203125 L 27.21875 12.109375 L 19.671875 8.75 L 19.453125 -1.953125 L 13.359375 -4.671875 L 9.421875 4.1875 Z M 15.671875 -9.859375 L 22.375 -6.875 C 23.894531 -6.195312 25.34375 -6.113281 26.71875 -6.625 C 28.09375 -7.144531 29.132812 -8.195312 29.84375 -9.78125 C 30.550781 -11.375 30.632812 -12.859375 30.09375 -14.234375 C 29.5625 -15.609375 28.535156 -16.632812 27.015625 -17.3125 L 20.3125 -20.296875 Z M 15.671875 -9.859375 "/></g></g></g><g fill="#000000" fill-opacity="1"><g transform="translate(258.597205, 56.902427)"><g><path d="M 1.59375 1.625 L 7.375 -3.3125 C 8.457031 -4.28125 9.847656 -5.484375 11.546875 -6.921875 C 11.578125 -6.953125 16.453125 -11.195312 26.171875 -19.65625 L 34.96875 -10.640625 L 24.453125 9.078125 L 44.40625 -0.953125 L 53.203125 8.0625 C 50.171875 11.445312 47.640625 14.226562 45.609375 16.40625 C 41.992188 20.351562 38.945312 23.71875 36.46875 26.5 C 35.96875 27.039062 35.347656 27.710938 34.609375 28.515625 C 33.867188 29.316406 33.175781 30.082031 32.53125 30.8125 C 31.882812 31.550781 31.492188 31.988281 31.359375 32.125 L 26.046875 26.671875 L 43.53125 7.4375 L 19.1875 19.65625 L 13.765625 14.09375 L 26.5625 -9.953125 L 6.890625 7.0625 Z M 1.59375 1.625 "/></g></g></g><g fill="#000000" fill-opacity="1"><g transform="translate(294.408421, 97.312629)"><g><path d="M 6.359375 16.46875 C 5.367188 14.03125 4.738281 11.632812 4.46875 9.28125 C 4.207031 6.925781 4.503906 4.71875 5.359375 2.65625 C 6.222656 0.59375 7.695312 -0.859375 9.78125 -1.703125 L 13.234375 6.78125 C 10.492188 7.894531 9.929688 10.4375 11.546875 14.40625 C 12.492188 16.726562 13.425781 18.234375 14.34375 18.921875 C 15.269531 19.609375 16.414062 19.671875 17.78125 19.109375 C 18.125 18.972656 18.414062 18.773438 18.65625 18.515625 C 18.894531 18.265625 19.054688 17.898438 19.140625 17.421875 C 19.222656 16.941406 19.273438 16.53125 19.296875 16.1875 C 19.316406 15.851562 19.28125 15.320312 19.1875 14.59375 C 19.101562 13.875 19.023438 13.328125 18.953125 12.953125 C 18.878906 12.585938 18.757812 11.972656 18.59375 11.109375 C 18.53125 10.617188 18.460938 10.25 18.390625 10 C 18.035156 8.226562 17.773438 6.820312 17.609375 5.78125 C 17.441406 4.75 17.34375 3.453125 17.3125 1.890625 C 17.28125 0.335938 17.414062 -0.921875 17.71875 -1.890625 C 18.019531 -2.859375 18.570312 -3.820312 19.375 -4.78125 C 20.1875 -5.738281 21.242188 -6.484375 22.546875 -7.015625 C 25.210938 -8.109375 27.6875 -8.023438 29.96875 -6.765625 C 32.582031 -5.222656 34.851562 -2.085938 36.78125 2.640625 C 37.769531 5.066406 38.367188 7.414062 38.578125 9.6875 C 38.785156 11.957031 38.453125 14.078125 37.578125 16.046875 C 36.703125 18.023438 35.222656 19.441406 33.140625 20.296875 L 29.6875 11.8125 C 31.15625 11.21875 32.023438 10.351562 32.296875 9.21875 C 32.578125 8.09375 32.347656 6.625 31.609375 4.8125 C 30.773438 2.738281 29.851562 1.304688 28.84375 0.515625 C 27.84375 -0.273438 26.828125 -0.457031 25.796875 -0.03125 C 25.210938 0.195312 24.78125 0.597656 24.5 1.171875 C 24.21875 1.753906 24.09375 2.507812 24.125 3.4375 C 24.164062 4.363281 24.242188 5.234375 24.359375 6.046875 C 24.472656 6.859375 24.644531 7.890625 24.875 9.140625 C 24.914062 9.328125 24.9375 9.457031 24.9375 9.53125 C 24.945312 9.613281 24.972656 9.726562 25.015625 9.875 C 25.054688 10.019531 25.078125 10.148438 25.078125 10.265625 C 25.421875 12.054688 25.648438 13.664062 25.765625 15.09375 C 25.890625 16.519531 25.875 18 25.71875 19.53125 C 25.570312 21.070312 25.128906 22.398438 24.390625 23.515625 C 23.648438 24.640625 22.609375 25.476562 21.265625 26.03125 C 18.253906 27.25 15.597656 27.191406 13.296875 25.859375 C 10.609375 24.359375 8.296875 21.226562 6.359375 16.46875 Z M 6.359375 16.46875 "/></g></g></g><g fill="#3b9b12" fill-opacity="1"><g transform="translate(70.017092, 320.86963)"><g><path d="M 10.578125 0 L 2.46875 0 L 2.46875 -30.78125 L 10.578125 -30.78125 L 10.578125 -18 L 21.734375 -18 L 21.734375 -30.78125 L 29.828125 -30.78125 L 29.828125 0 L 21.734375 0 L 21.734375 -11.625 L 10.578125 -11.625 Z M 10.578125 0 "/></g></g></g><g fill="#3b9b12" fill-opacity="1"><g transform="translate(106.159539, 320.86963)"><g><path d="M 2.46875 -30.78125 L 25.671875 -30.78125 L 25.671875 -24.5625 L 10.578125 -24.5625 L 10.578125 -18.40625 L 22.046875 -18.40625 L 22.046875 -12.09375 L 10.578125 -12.09375 L 10.578125 -6.203125 L 25.671875 -6.203125 L 25.671875 0 L 2.46875 0 Z M 2.46875 -30.78125 "/></g></g></g><g fill="#3b9b12" fill-opacity="1"><g transform="translate(137.35682, 320.86963)"><g><path d="M 32.78125 0 L 24.203125 0 L 22.046875 -6.265625 L 11.09375 -6.265625 L 8.9375 0 L 0.375 0 L 10.46875 -30.78125 L 22.671875 -30.78125 Z M 20.671875 -12.625 L 16.578125 -25.25 L 12.46875 -12.625 Z M 20.671875 -12.625 "/></g></g></g><g fill="#3b9b12" fill-opacity="1"><g transform="translate(174.341003, 320.86963)"><g><path d="M 2.46875 -30.78125 L 10.578125 -30.78125 L 10.578125 -6.203125 L 25.671875 -6.203125 L 25.671875 0 L 2.46875 0 Z M 2.46875 -30.78125 "/></g></g></g><g fill="#3b9b12" fill-opacity="1"><g transform="translate(205.012178, 320.86963)"><g><path d="M 17.625 0 L 9.515625 0 L 9.515625 -24.5625 L 0.625 -24.5625 L 0.625 -30.78125 L 26.515625 -30.78125 L 26.515625 -24.5625 L 17.625 -24.5625 Z M 17.625 0 "/></g></g></g><g fill="#3b9b12" fill-opacity="1"><g transform="translate(235.998996, 320.86963)"><g><path d="M 10.578125 0 L 2.46875 0 L 2.46875 -30.78125 L 10.578125 -30.78125 L 10.578125 -18 L 21.734375 -18 L 21.734375 -30.78125 L 29.828125 -30.78125 L 29.828125 0 L 21.734375 0 L 21.734375 -11.625 L 10.578125 -11.625 Z M 10.578125 0 "/></g></g></g><g fill="#3b9b12" fill-opacity="1"><g transform="translate(272.141464, 320.86963)"><g><path d="M 12.421875 -9.578125 L 0.625 -30.78125 L 9.625 -30.78125 L 16.46875 -18.3125 L 23.140625 -30.78125 L 32.203125 -30.78125 L 20.515625 -9.625 L 20.515625 0 L 12.421875 0 Z M 12.421875 -9.578125 "/></g></g></g></svg>